<?xml version="1.0" encoding="utf-8"?>
<!-- Generator: Adobe Illustrator 18.0.0, SVG Export Plug-In . SVG Version: 6.00 Build 0)  -->
<!DOCTYPE svg PUBLIC "-//W3C//DTD SVG 1.1//EN" "http://www.w3.org/Graphics/SVG/1.1/DTD/svg11.dtd">
<svg version="1.1" id="Layer_1" xmlns="http://www.w3.org/2000/svg" xmlns:xlink="http://www.w3.org/1999/xlink" x="0px" y="0px"
	 viewBox="59.7 50 468.6 188" enable-background="new 59.7 50 468.6 188" xml:space="preserve">
<g>
	<g>
		<g>
			<path fill="#1A1A1A" d="M152.5,149c-5.1,1.7-14.7,4.1-24.4,4.1c-13.3,0-22.9-3.4-29.7-9.9c-6.7-6.3-10.4-15.8-10.3-26.5
				c0.1-24.2,17.8-38.1,41.7-38.1c9.4,0,16.7,1.8,20.2,3.6l-3.5,13.2c-4-1.7-9-3.1-17-3.1c-13.7,0-24.1,7.8-24.1,23.6
				c0,15,9.4,23.9,22.9,23.9c3.8,0,6.8-0.4,8.1-1.1v-15.3h-11.3v-12.9h27.2V149z"/>
			<path fill="#1A1A1A" d="M217.8,125.3c0,19.4-13.7,28.3-27.9,28.3c-15.5,0-27.4-10.2-27.4-27.3c0-17.1,11.3-28,28.3-28
				C207,98.2,217.8,109.4,217.8,125.3z M179.5,125.8c0,9.1,3.8,15.9,10.8,15.9c6.4,0,10.5-6.4,10.5-15.9c0-7.9-3-15.9-10.5-15.9
				C182.4,109.9,179.5,118,179.5,125.8z"/>
			<path fill="#1A1A1A" d="M227.9,138c3,1.8,9.3,4,14.2,4c5,0,7-1.7,7-4.4s-1.6-4-7.8-6.1c-10.9-3.7-15.2-9.6-15-15.9
				c0-9.9,8.4-17.3,21.5-17.3c6.2,0,11.7,1.4,14.9,3l-2.9,11.4c-2.4-1.3-6.9-3-11.5-3c-4,0-6.3,1.6-6.3,4.3c0,2.5,2.1,3.8,8.6,6.1
				c10.1,3.5,14.3,8.6,14.4,16.3c0,9.9-7.8,17.1-22.9,17.1c-6.9,0-13.1-1.5-17.1-3.7L227.9,138z"/>
			<path fill="#1A1A1A" d="M275,75.5h16.5v30.2h0.2c1.7-2.3,3.9-4,6.5-5.4c2.4-1.3,5.5-2.1,8.6-2.1c10.5,0,18.5,7.3,18.5,23.2v31
				h-16.5v-29.1c0-6.9-2.4-11.7-8.6-11.7c-4.3,0-7,2.8-8.2,5.7c-0.4,1.1-0.5,2.5-0.5,3.7v31.4H275V75.5z"/>
			<path fill="#1A1A1A" d="M388.3,135.4c0,6.9,0.2,12.6,0.4,17h-14.3l-0.8-7.5h-0.3c-2.1,3.2-7,8.7-16.6,8.7
				c-10.7,0-18.6-6.7-18.6-23.1V99.4h16.6v28.5c0,7.7,2.5,12.3,8.2,12.3c4.5,0,7.1-3.1,8.2-5.7c0.4-1,0.5-2.3,0.5-3.6V99.4h16.6
				V135.4z"/>
		</g>
		<g>
			<path fill="#1A1A1A" d="M94.3,201.2l-2.4,7.2h-3l7.7-22.8h3.6l7.8,22.8h-3.1l-2.4-7.2H94.3z M101.8,198.9l-2.2-6.6
				c-0.5-1.5-0.8-2.8-1.2-4.2h-0.1c-0.3,1.4-0.7,2.7-1.1,4.1l-2.2,6.6H101.8z"/>
			<path fill="#1A1A1A" d="M137.7,198.3c-0.2-3.2-0.4-7-0.3-9.8h-0.1c-0.8,2.7-1.7,5.5-2.9,8.7l-4,11.1h-2.2l-3.7-10.9
				c-1.1-3.2-2-6.2-2.6-8.9h-0.1c-0.1,2.8-0.2,6.7-0.4,10.1l-0.6,9.8h-2.8l1.6-22.8h3.8l3.9,11c0.9,2.8,1.7,5.3,2.3,7.7h0.1
				c0.6-2.3,1.4-4.8,2.4-7.7l4.1-11h3.8l1.4,22.8h-2.9L137.7,198.3z"/>
			<path fill="#1A1A1A" d="M160.6,200c0,6.1-4.2,8.7-8.2,8.7c-4.4,0-7.8-3.2-7.8-8.4c0-5.5,3.6-8.7,8.1-8.7
				C157.4,191.6,160.6,195,160.6,200z M147.6,200.2c0,3.6,2.1,6.3,5,6.3c2.8,0,5-2.7,5-6.4c0-2.8-1.4-6.3-4.9-6.3
				C149.1,193.8,147.6,197.1,147.6,200.2z"/>
			<path fill="#1A1A1A" d="M178.5,184.3v19.8c0,1.5,0,3.1,0.1,4.2H176l-0.1-2.8h-0.1c-0.9,1.8-2.9,3.2-5.6,3.2c-4,0-7-3.3-7-8.3
				c0-5.4,3.3-8.8,7.3-8.8c2.5,0,4.2,1.2,4.9,2.5h0.1v-9.8H178.5z M175.5,198.6c0-0.4,0-0.9-0.1-1.3c-0.4-1.9-2.1-3.5-4.3-3.5
				c-3.1,0-4.9,2.7-4.9,6.3c0,3.3,1.6,6.1,4.8,6.1c2,0,3.8-1.3,4.4-3.6c0.1-0.4,0.1-0.8,0.1-1.3V198.6z"/>
			<path fill="#1A1A1A" d="M197.1,203.9c0,1.7,0,3.2,0.1,4.5h-2.6l-0.2-2.7h-0.1c-0.8,1.3-2.5,3-5.4,3c-2.6,0-5.6-1.4-5.6-7.2V192h3
				v9.1c0,3.1,0.9,5.2,3.7,5.2c2,0,3.4-1.4,3.9-2.7c0.2-0.4,0.3-1,0.3-1.5v-10h3V203.9z"/>
			<path fill="#1A1A1A" d="M202.1,184.3h3v24h-3V184.3z"/>
			<path fill="#1A1A1A" d="M219.1,208.3l-0.2-2.1h-0.1c-0.9,1.3-2.7,2.4-5,2.4c-3.3,0-5-2.3-5-4.7c0-4,3.5-6.1,9.8-6.1v-0.3
				c0-1.4-0.4-3.8-3.7-3.8c-1.5,0-3.1,0.5-4.3,1.2l-0.7-2c1.4-0.9,3.3-1.5,5.4-1.5c5,0,6.2,3.4,6.2,6.7v6.1c0,1.4,0.1,2.8,0.3,3.9
				H219.1z M218.7,200c-3.2-0.1-6.9,0.5-6.9,3.7c0,1.9,1.3,2.8,2.8,2.8c2.1,0,3.5-1.4,4-2.7c0.1-0.3,0.2-0.6,0.2-0.9V200z"/>
			<path fill="#1A1A1A" d="M226.4,197.1c0-1.9,0-3.6-0.1-5.1h2.6l0.1,3.2h0.1c0.7-2.2,2.5-3.6,4.5-3.6c0.3,0,0.6,0,0.8,0.1v2.8
				c-0.3-0.1-0.6-0.1-1-0.1c-2.1,0-3.6,1.6-4,3.8c-0.1,0.4-0.1,0.9-0.1,1.4v8.7h-2.9V197.1z"/>
			<path fill="#1A1A1A" d="M233.7,212.5c0.7-2,1.7-5.6,2-8.1l3.3-0.3c-0.8,2.9-2.3,6.6-3.2,8.2L233.7,212.5z"/>
			<path fill="#1A1A1A" d="M261.7,197.6h-8.9v8.2h9.9v2.5h-12.8v-22.8h12.3v2.5h-9.4v7.2h8.9V197.6z"/>
			<path fill="#1A1A1A" d="M267.8,192l2.3,3.5c0.6,0.9,1.1,1.8,1.7,2.7h0.1c0.5-1,1.1-1.8,1.6-2.7l2.3-3.5h3.2l-5.6,7.9l5.8,8.5
				h-3.4l-2.4-3.7c-0.6-0.9-1.2-1.9-1.8-2.8h-0.1c-0.5,1-1.1,1.9-1.7,2.8l-2.4,3.7h-3.3l5.8-8.4l-5.5-8H267.8z"/>
			<path fill="#1A1A1A" d="M286.1,187.3v4.7h4.3v2.3h-4.3v8.8c0,2,0.6,3.2,2.2,3.2c0.8,0,1.4-0.1,1.7-0.2l0.1,2.2
				c-0.6,0.2-1.5,0.4-2.6,0.4c-1.4,0-2.5-0.4-3.2-1.3c-0.8-0.9-1.2-2.3-1.2-4.3v-8.9h-2.5V192h2.5V188L286.1,187.3z"/>
			<path fill="#1A1A1A" d="M295.2,200.7c0.1,4,2.6,5.7,5.6,5.7c2.1,0,3.4-0.4,4.5-0.8l0.5,2.1c-1,0.5-2.8,1-5.4,1
				c-5,0-8.1-3.3-8.1-8.3c0-4.9,2.9-8.8,7.7-8.8c5.3,0,6.8,4.7,6.8,7.7c0,0.6-0.1,1.1-0.1,1.4H295.2z M303.9,198.6
				c0-1.9-0.8-4.8-4.1-4.8c-3,0-4.3,2.8-4.6,4.8H303.9z"/>
			<path fill="#1A1A1A" d="M310.5,196.4c0-1.7,0-3.1-0.1-4.4h2.6l0.2,2.7h0.1c0.8-1.6,2.7-3.1,5.4-3.1c2.3,0,5.8,1.4,5.8,7v9.8h-3
				v-9.4c0-2.6-1-4.8-3.8-4.8c-2,0-3.5,1.4-4,3c-0.1,0.4-0.2,0.9-0.2,1.4v9.8h-3V196.4z"/>
			<path fill="#1A1A1A" d="M328.8,205.3c0.9,0.6,2.4,1.2,3.9,1.2c2.2,0,3.2-1.1,3.2-2.4c0-1.4-0.8-2.2-3-3c-2.9-1-4.3-2.7-4.3-4.6
				c0-2.6,2.1-4.8,5.6-4.8c1.7,0,3.1,0.5,4,1l-0.7,2.2c-0.6-0.4-1.8-0.9-3.3-0.9c-1.8,0-2.7,1-2.7,2.2c0,1.4,1,2,3.1,2.8
				c2.8,1.1,4.3,2.5,4.3,4.9c0,2.9-2.2,4.9-6.1,4.9c-1.8,0-3.5-0.4-4.6-1.1L328.8,205.3z"/>
			<path fill="#1A1A1A" d="M346,187.4c0,1-0.7,1.8-1.9,1.8c-1,0-1.8-0.8-1.8-1.8c0-1,0.8-1.9,1.9-1.9
				C345.2,185.5,346,186.3,346,187.4z M342.6,208.3V192h3v16.4H342.6z"/>
			<path fill="#1A1A1A" d="M350.4,208.3c0.1-1.1,0.1-2.8,0.1-4.2v-19.8h2.9v10.3h0.1c1-1.8,2.9-3,5.6-3c4.1,0,6.9,3.4,6.9,8.4
				c0,5.9-3.7,8.8-7.3,8.8c-2.4,0-4.3-0.9-5.5-3.1h-0.1l-0.1,2.7H350.4z M353.5,201.8c0,0.4,0.1,0.7,0.1,1.1
				c0.6,2.1,2.3,3.5,4.5,3.5c3.1,0,5-2.5,5-6.3c0-3.3-1.7-6.1-4.9-6.1c-2,0-3.9,1.4-4.5,3.7c-0.1,0.3-0.2,0.7-0.2,1.2V201.8z"/>
			<path fill="#1A1A1A" d="M369.8,184.3h3v24h-3V184.3z"/>
			<path fill="#1A1A1A" d="M379.4,200.7c0.1,4,2.6,5.7,5.6,5.7c2.1,0,3.4-0.4,4.5-0.8l0.5,2.1c-1,0.5-2.8,1-5.4,1
				c-5,0-8.1-3.3-8.1-8.3c0-4.9,2.9-8.8,7.7-8.8c5.3,0,6.8,4.7,6.8,7.7c0,0.6-0.1,1.1-0.1,1.4H379.4z M388.2,198.6
				c0-1.9-0.8-4.8-4.1-4.8c-3,0-4.3,2.8-4.6,4.8H388.2z"/>
			<path fill="#1A1A1A" d="M404.9,185.5v22.8H402v-22.8H404.9z"/>
			<path fill="#1A1A1A" d="M410.1,185.8c1.5-0.3,3.6-0.5,5.6-0.5c3.1,0,5.2,0.6,6.6,1.9c1.1,1,1.8,2.6,1.8,4.3c0,3-1.9,5-4.3,5.8
				v0.1c1.8,0.6,2.8,2.2,3.3,4.6c0.7,3.2,1.3,5.4,1.8,6.3h-3c-0.4-0.6-0.9-2.6-1.5-5.4c-0.7-3.1-1.9-4.3-4.6-4.4H413v9.9h-2.9V185.8
				z M413,196.2h3c3.1,0,5.1-1.7,5.1-4.3c0-2.9-2.1-4.2-5.2-4.3c-1.4,0-2.4,0.1-2.9,0.3V196.2z"/>
			<path fill="#1A1A1A" d="M444.3,207.6c-1.1,0.5-3.2,1.1-6,1.1c-6.4,0-11.3-4.1-11.3-11.5c0-7.1,4.8-12,11.9-12
				c2.8,0,4.6,0.6,5.4,1l-0.7,2.4c-1.1-0.5-2.7-0.9-4.6-0.9c-5.3,0-8.9,3.4-8.9,9.4c0,5.6,3.2,9.2,8.8,9.2c1.8,0,3.6-0.4,4.8-0.9
				L444.3,207.6z"/>
			<path fill="#1A1A1A" d="M455.2,185.8c1.3-0.3,3.3-0.5,5.4-0.5c2.9,0,4.8,0.5,6.3,1.7c1.2,0.9,1.9,2.2,1.9,4c0,2.2-1.5,4.1-3.9,5
				v0.1c2.2,0.5,4.7,2.3,4.7,5.7c0,2-0.8,3.5-1.9,4.6c-1.6,1.5-4.2,2.1-7.9,2.1c-2,0-3.6-0.1-4.6-0.3V185.8z M458.1,195.2h2.7
				c3.1,0,4.9-1.6,4.9-3.8c0-2.7-2-3.7-5-3.7c-1.4,0-2.1,0.1-2.6,0.2V195.2z M458.1,206.1c0.6,0.1,1.4,0.1,2.5,0.1
				c3,0,5.9-1.1,5.9-4.4c0-3.1-2.7-4.4-5.9-4.4h-2.4V206.1z"/>
			<path fill="#1A1A1A" d="M488.3,200c0,6.1-4.2,8.7-8.2,8.7c-4.4,0-7.8-3.2-7.8-8.4c0-5.5,3.6-8.7,8.1-8.7
				C485.2,191.6,488.3,195,488.3,200z M475.4,200.2c0,3.6,2.1,6.3,5,6.3c2.8,0,5-2.7,5-6.4c0-2.8-1.4-6.3-4.9-6.3
				C476.9,193.8,475.4,197.1,475.4,200.2z"/>
			<path fill="#1A1A1A" d="M495.7,187.3v4.7h4.3v2.3h-4.3v8.8c0,2,0.6,3.2,2.2,3.2c0.8,0,1.4-0.1,1.7-0.2l0.1,2.2
				c-0.6,0.2-1.5,0.4-2.6,0.4c-1.4,0-2.5-0.4-3.2-1.3c-0.8-0.9-1.1-2.3-1.1-4.3v-8.9h-2.5V192h2.5V188L495.7,187.3z"/>
		</g>
	</g>
	<g>
		<rect x="88" y="162.9" fill-rule="evenodd" clip-rule="evenodd" fill="#2E97A5" width="301" height="2"/>
		<rect x="88" y="163.9" fill-rule="evenodd" clip-rule="evenodd" fill="#165E66" width="301" height="5"/>
	</g>
</g>
</svg>
